<?xml version="1.0" encoding="UTF-8"?>
<svg xmlns="http://www.w3.org/2000/svg" width="25mm" height="3.2689mm" viewBox="0 0 70.8661 9.2661" role="img" aria-label="Escanea para ayudar">
  <title>Escanea para ayudar</title>
  <path fill="#000000" fill-rule="evenodd" d="M4.2827 6.4732 L1.4173 6.4732 L1.4173 1.369 L4.1688 1.369 L4.1688 2.088 L2.2645 2.088 L2.2645 3.5332 L4.0193 3.5332 L4.0193 4.2486 L2.2645 4.2486 L2.2645 5.7578 L4.2827 5.7578 Z M4.934 6.3593 L4.934 5.5941 C5.2425 5.829 5.583 5.9465 5.9556 5.9465 C6.4539 5.9465 6.7031 5.7993 6.7031 5.5051 C6.7031 5.422 6.6817 5.3514 6.639 5.2933 C6.5963 5.2352 6.5387 5.1836 6.4664 5.1385 C6.394 5.0934 6.3086 5.053 6.2101 5.0174 C6.1116 4.9819 6.0019 4.9415 5.8808 4.8964 C5.7313 4.8371 5.5967 4.7742 5.4768 4.7078 C5.357 4.6413 5.2573 4.566 5.1779 4.4818 C5.0984 4.3975 5.0384 4.302 4.9981 4.1952 C4.9578 4.0884 4.9376 3.9639 4.9376 3.8215 C4.9376 3.6459 4.9791 3.491 5.0622 3.357 C5.1452 3.2229 5.2568 3.1102 5.3968 3.0188 C5.5368 2.9275 5.6957 2.8587 5.8737 2.8124 C6.0517 2.7661 6.2356 2.743 6.4254 2.743 C6.7624 2.743 7.0638 2.794 7.3295 2.896 L7.3295 3.6186 C7.0732 3.443 6.779 3.3552 6.4468 3.3552 C6.3424 3.3552 6.2481 3.3659 6.1638 3.3872 C6.0796 3.4086 6.0078 3.4382 5.9485 3.4762 C5.8891 3.5142 5.8429 3.5599 5.8096 3.6133 C5.7764 3.6666 5.7598 3.7254 5.7598 3.7894 C5.7598 3.8678 5.7764 3.9342 5.8096 3.9888 C5.8429 4.0433 5.8921 4.0914 5.9574 4.1329 C6.0226 4.1745 6.1009 4.2124 6.1923 4.2468 C6.2836 4.2812 6.3886 4.3186 6.5073 4.359 C6.6639 4.423 6.8045 4.4883 6.9291 4.5547 C7.0537 4.6212 7.1599 4.6965 7.2477 4.7807 C7.3355 4.865 7.4031 4.9623 7.4505 5.0726 C7.498 5.183 7.5217 5.3141 7.5217 5.4659 C7.5217 5.651 7.479 5.8124 7.3936 5.95 C7.3082 6.0876 7.1943 6.2015 7.0519 6.2917 C6.9095 6.3819 6.7452 6.4489 6.5589 6.4928 C6.3726 6.5367 6.1763 6.5587 5.9698 6.5587 C5.5712 6.5587 5.2259 6.4922 4.934 6.3593 Z M10.9779 6.306 C10.6861 6.4744 10.3408 6.5587 9.9421 6.5587 C9.4011 6.5587 8.9645 6.3896 8.6323 6.0515 C8.3001 5.7133 8.134 5.2749 8.134 4.7363 C8.134 4.1359 8.3125 3.6536 8.6696 3.2893 C9.0268 2.9251 9.5043 2.743 10.1023 2.743 C10.4345 2.743 10.7276 2.8011 10.9815 2.9174 L10.9815 3.6862 C10.7276 3.4964 10.4571 3.4015 10.1699 3.4015 C9.8211 3.4015 9.5352 3.5195 9.3121 3.7556 C9.0891 3.9917 8.9775 4.3008 8.9775 4.6829 C8.9775 5.0602 9.0825 5.358 9.2925 5.5763 C9.5025 5.7946 9.7843 5.9037 10.1379 5.9037 C10.4345 5.9037 10.7145 5.7981 10.9779 5.587 Z M14.6584 6.4732 L13.8575 6.4732 L13.8575 5.9037 L13.8433 5.9037 C13.5917 6.3404 13.2227 6.5587 12.7363 6.5587 C12.378 6.5587 12.0974 6.4614 11.8945 6.2668 C11.6916 6.0722 11.5901 5.8148 11.5901 5.4944 C11.5901 4.8063 11.9864 4.4052 12.779 4.2913 L13.8611 4.1383 C13.8611 3.6186 13.6143 3.3588 13.1207 3.3588 C12.6864 3.3588 12.2949 3.5082 11.9461 3.8072 L11.9461 3.0847 C12.3305 2.8569 12.7742 2.743 13.2773 2.743 C14.198 2.743 14.6584 3.1962 14.6584 4.1027 Z M13.8611 4.6829 L13.0958 4.7896 C12.8585 4.8205 12.6799 4.878 12.5601 4.9623 C12.4403 5.0465 12.3803 5.1942 12.3803 5.4054 C12.3803 5.5597 12.4355 5.686 12.5459 5.7845 C12.6562 5.883 12.8039 5.9322 12.989 5.9322 C13.2405 5.9322 13.4488 5.8438 13.6137 5.667 C13.7786 5.4903 13.8611 5.2678 13.8611 4.9996 Z M18.9759 6.4732 L18.1502 6.4732 L18.1502 4.4195 C18.1502 3.7384 17.9093 3.3979 17.4276 3.3979 C17.1761 3.3979 16.9684 3.4922 16.8047 3.6809 C16.641 3.8695 16.5591 4.1074 16.5591 4.3945 L16.5591 6.4732 L15.7298 6.4732 L15.7298 2.8284 L16.5591 2.8284 L16.5591 3.4335 L16.5733 3.4335 C16.8462 2.9732 17.2401 2.743 17.7551 2.743 C18.1513 2.743 18.4539 2.8717 18.6627 3.1292 C18.8715 3.3866 18.9759 3.7586 18.9759 4.245 Z M23.1333 4.8751 L20.6489 4.8751 C20.6584 5.212 20.7622 5.4719 20.9603 5.6546 C21.1585 5.8373 21.4308 5.9287 21.7772 5.9287 C22.1664 5.9287 22.5235 5.8124 22.8486 5.5798 L22.8486 6.2454 C22.5164 6.4543 22.0774 6.5587 21.5316 6.5587 C20.9953 6.5587 20.5747 6.3932 20.2698 6.0621 C19.9649 5.7311 19.8124 5.2654 19.8124 4.6651 C19.8124 4.0979 19.9803 3.6358 20.3161 3.2787 C20.6518 2.9215 21.0689 2.743 21.5672 2.743 C22.0655 2.743 22.4511 2.9031 22.724 3.2235 C22.9969 3.5438 23.1333 3.9888 23.1333 4.5583 Z M22.336 4.2913 C22.3337 3.9947 22.2637 3.7639 22.126 3.599 C21.9884 3.4341 21.7986 3.3516 21.5565 3.3516 C21.3192 3.3516 21.1181 3.4382 20.9532 3.6115 C20.7883 3.7847 20.6868 4.0113 20.6489 4.2913 Z M26.7818 6.4732 L25.9809 6.4732 L25.9809 5.9037 L25.9666 5.9037 C25.7151 6.3404 25.3461 6.5587 24.8597 6.5587 C24.5014 6.5587 24.2208 6.4614 24.0179 6.2668 C23.815 6.0722 23.7135 5.8148 23.7135 5.4944 C23.7135 4.8063 24.1098 4.4052 24.9024 4.2913 L25.9844 4.1383 C25.9844 3.6186 25.7377 3.3588 25.2441 3.3588 C24.8098 3.3588 24.4183 3.5082 24.0695 3.8072 L24.0695 3.0847 C24.4539 2.8569 24.8976 2.743 25.4007 2.743 C26.3214 2.743 26.7818 3.1962 26.7818 4.1027 Z M25.9844 4.6829 L25.2192 4.7896 C24.9819 4.8205 24.8033 4.878 24.6835 4.9623 C24.5636 5.0465 24.5037 5.1942 24.5037 5.4054 C24.5037 5.5597 24.5589 5.686 24.6692 5.7845 C24.7796 5.883 24.9273 5.9322 25.1124 5.9322 C25.3639 5.9322 25.5721 5.8438 25.7371 5.667 C25.902 5.4903 25.9844 5.2678 25.9844 4.9996 Z M30.8574 5.9358 L30.8432 5.9358 L30.8432 8.1497 L30.0174 8.1497 L30.0174 2.8284 L30.8432 2.8284 L30.8432 3.4691 L30.8574 3.4691 C31.1398 2.985 31.5527 2.743 32.0961 2.743 C32.5588 2.743 32.9195 2.9055 33.1782 3.2306 C33.4368 3.5557 33.5662 3.9923 33.5662 4.5405 C33.5662 5.148 33.4202 5.6344 33.1283 5.9998 C32.8365 6.3653 32.4378 6.548 31.9324 6.548 C31.4673 6.548 31.109 6.3439 30.8574 5.9358 Z M30.8361 4.4978 L30.8361 4.9498 C30.8361 5.2156 30.9209 5.441 31.0906 5.6261 C31.2602 5.8112 31.4756 5.9037 31.7366 5.9037 C32.0427 5.9037 32.283 5.7845 32.4574 5.546 C32.6318 5.3075 32.719 4.9747 32.719 4.5476 C32.719 4.1893 32.6377 3.9087 32.4752 3.7058 C32.3126 3.5029 32.0926 3.4015 31.8149 3.4015 C31.5207 3.4015 31.284 3.5059 31.1048 3.7147 C30.9257 3.9235 30.8361 4.1845 30.8361 4.4978 Z M37.1861 6.4732 L36.3852 6.4732 L36.3852 5.9037 L36.371 5.9037 C36.1194 6.3404 35.7505 6.5587 35.264 6.5587 C34.9057 6.5587 34.6251 6.4614 34.4222 6.2668 C34.2193 6.0722 34.1179 5.8148 34.1179 5.4944 C34.1179 4.8063 34.5141 4.4052 35.3067 4.2913 L36.3888 4.1383 C36.3888 3.6186 36.142 3.3588 35.6484 3.3588 C35.2142 3.3588 34.8226 3.5082 34.4738 3.8072 L34.4738 3.0847 C34.8582 2.8569 35.302 2.743 35.805 2.743 C36.7257 2.743 37.1861 3.1962 37.1861 4.1027 Z M36.3888 4.6829 L35.6235 4.7896 C35.3862 4.8205 35.2076 4.878 35.0878 4.9623 C34.968 5.0465 34.9081 5.1942 34.9081 5.4054 C34.9081 5.5597 34.9632 5.686 35.0736 5.7845 C35.1839 5.883 35.3316 5.9322 35.5167 5.9322 C35.7682 5.9322 35.9765 5.8438 36.1414 5.667 C36.3063 5.4903 36.3888 5.2678 36.3888 4.9996 Z M40.3718 3.615 C40.2721 3.5367 40.1285 3.4976 39.9411 3.4976 C39.6967 3.4976 39.4926 3.6079 39.3289 3.8286 C39.1651 4.0493 39.0833 4.3495 39.0833 4.7291 L39.0833 6.4732 L38.2575 6.4732 L38.2575 2.8284 L39.0833 2.8284 L39.0833 3.5794 L39.0975 3.5794 C39.1782 3.3232 39.3022 3.1232 39.4695 2.9797 C39.6367 2.8361 39.8236 2.7643 40.0301 2.7643 C40.1796 2.7643 40.2935 2.7869 40.3718 2.832 Z M43.8173 6.4732 L43.0164 6.4732 L43.0164 5.9037 L43.0022 5.9037 C42.7506 6.3404 42.3817 6.5587 41.8952 6.5587 C41.5369 6.5587 41.2563 6.4614 41.0534 6.2668 C40.8505 6.0722 40.7491 5.8148 40.7491 5.4944 C40.7491 4.8063 41.1453 4.4052 41.9379 4.2913 L43.02 4.1383 C43.02 3.6186 42.7732 3.3588 42.2796 3.3588 C41.8454 3.3588 41.4538 3.5082 41.105 3.8072 L41.105 3.0847 C41.4894 2.8569 41.9332 2.743 42.4362 2.743 C43.3569 2.743 43.8173 3.1962 43.8173 4.1027 Z M43.02 4.6829 L42.2547 4.7896 C42.0174 4.8205 41.8388 4.878 41.719 4.9623 C41.5992 5.0465 41.5393 5.1942 41.5393 5.4054 C41.5393 5.5597 41.5944 5.686 41.7048 5.7845 C41.8151 5.883 41.9628 5.9322 42.1479 5.9322 C42.3995 5.9322 42.6077 5.8438 42.7726 5.667 C42.9375 5.4903 43.02 5.2678 43.02 4.9996 Z M49.8506 6.4732 L49.0498 6.4732 L49.0498 5.9037 L49.0355 5.9037 C48.784 6.3404 48.415 6.5587 47.9286 6.5587 C47.5702 6.5587 47.2896 6.4614 47.0868 6.2668 C46.8839 6.0722 46.7824 5.8148 46.7824 5.4944 C46.7824 4.8063 47.1787 4.4052 47.9713 4.2913 L49.0533 4.1383 C49.0533 3.6186 48.8066 3.3588 48.313 3.3588 C47.8787 3.3588 47.4872 3.5082 47.1384 3.8072 L47.1384 3.0847 C47.5228 2.8569 47.9665 2.743 48.4696 2.743 C49.3903 2.743 49.8506 3.1962 49.8506 4.1027 Z M49.0533 4.6829 L48.2881 4.7896 C48.0508 4.8205 47.8722 4.878 47.7524 4.9623 C47.6325 5.0465 47.5726 5.1942 47.5726 5.4054 C47.5726 5.5597 47.6278 5.686 47.7381 5.7845 C47.8485 5.883 47.9962 5.9322 48.1813 5.9322 C48.4328 5.9322 48.641 5.8438 48.806 5.667 C48.9709 5.4903 49.0533 5.2678 49.0533 4.9996 Z M54.0792 2.8284 L52.4348 7.057 C52.0931 7.8116 51.6137 8.1889 50.9968 8.1889 C50.8236 8.1889 50.6788 8.1735 50.5625 8.1426 L50.5625 7.4556 C50.693 7.4984 50.8117 7.5197 50.9185 7.5197 C51.227 7.5197 51.4571 7.3678 51.609 7.0641 L51.8546 6.4661 L50.4059 2.8284 L51.3207 2.8284 L52.1892 5.4766 C52.1987 5.5098 52.22 5.5976 52.2533 5.74 L52.2711 5.74 C52.2829 5.6854 52.3043 5.6 52.3351 5.4837 L53.2463 2.8284 Z M57.87 6.4732 L57.0442 6.4732 L57.0442 5.8966 L57.03 5.8966 C56.7903 6.338 56.4178 6.5587 55.9123 6.5587 C55.051 6.5587 54.6203 6.0414 54.6203 5.0068 L54.6203 2.8284 L55.4461 2.8284 L55.4461 4.9213 C55.4461 5.5763 55.6988 5.9037 56.2042 5.9037 C56.4486 5.9037 56.6497 5.8136 56.8075 5.6332 C56.9653 5.4529 57.0442 5.2168 57.0442 4.9249 L57.0442 2.8284 L57.87 2.8284 Z M62.3229 6.4732 L61.4971 6.4732 L61.4971 5.8539 L61.4828 5.8539 C61.2171 6.3238 60.8077 6.5587 60.2548 6.5587 C59.8063 6.5587 59.4474 6.3955 59.1781 6.0693 C58.9088 5.743 58.7741 5.2986 58.7741 4.7363 C58.7741 4.1335 58.923 3.6506 59.2208 3.2876 C59.5186 2.9245 59.9155 2.743 60.4114 2.743 C60.9026 2.743 61.2598 2.9399 61.4828 3.3338 L61.4971 3.3338 L61.4971 1.0772 L62.3229 1.0772 Z M61.5078 4.8074 L61.5078 4.3305 C61.5078 4.0718 61.4235 3.8523 61.255 3.672 C61.0866 3.4916 60.8718 3.4015 60.6108 3.4015 C60.3023 3.4015 60.0597 3.5166 59.8829 3.7467 C59.7061 3.9769 59.6177 4.2961 59.6177 4.7042 C59.6177 5.0744 59.7025 5.3669 59.8722 5.5816 C60.0419 5.7964 60.2703 5.9037 60.5574 5.9037 C60.8398 5.9037 61.0688 5.7999 61.2444 5.5923 C61.42 5.3847 61.5078 5.123 61.5078 4.8074 Z M66.2631 6.4732 L65.4623 6.4732 L65.4623 5.9037 L65.448 5.9037 C65.1965 6.3404 64.8275 6.5587 64.341 6.5587 C63.9827 6.5587 63.7021 6.4614 63.4992 6.2668 C63.2964 6.0722 63.1949 5.8148 63.1949 5.4944 C63.1949 4.8063 63.5912 4.4052 64.3838 4.2913 L65.4658 4.1383 C65.4658 3.6186 65.219 3.3588 64.7255 3.3588 C64.2912 3.3588 63.8997 3.5082 63.5509 3.8072 L63.5509 3.0847 C63.9353 2.8569 64.379 2.743 64.8821 2.743 C65.8028 2.743 66.2631 3.1962 66.2631 4.1027 Z M65.4658 4.6829 L64.7006 4.7896 C64.4633 4.8205 64.2847 4.878 64.1649 4.9623 C64.045 5.0465 63.9851 5.1942 63.9851 5.4054 C63.9851 5.5597 64.0403 5.686 64.1506 5.7845 C64.261 5.883 64.4087 5.9322 64.5938 5.9322 C64.8453 5.9322 65.0535 5.8438 65.2184 5.667 C65.3834 5.4903 65.4658 5.2678 65.4658 4.9996 Z M69.4488 3.615 C69.3492 3.5367 69.2056 3.4976 69.0181 3.4976 C68.7737 3.4976 68.5696 3.6079 68.4059 3.8286 C68.2422 4.0493 68.1603 4.3495 68.1603 4.7291 L68.1603 6.4732 L67.3345 6.4732 L67.3345 2.8284 L68.1603 2.8284 L68.1603 3.5794 L68.1745 3.5794 C68.2552 3.3232 68.3792 3.1232 68.5465 2.9797 C68.7138 2.8361 68.9007 2.7643 69.1071 2.7643 C69.2566 2.7643 69.3705 2.7869 69.4488 2.832 Z"/>
</svg>
