<?xml version="1.0" encoding="UTF-8"?>
<svg xmlns="http://www.w3.org/2000/svg" width="996" height="343.5" viewBox="0 0 996 343.5" role="img" aria-label="HelPlis logo">
  <title>HelPlis logo</title>
  <path fill="#000000" fill-rule="evenodd" d="M843 134.25 L840.75 136.5 L840.75 240.75 L843.75 243 L875.25 243 L877.5 240.75 L877.5 136.5 L876.75 135 L875.25 134.25 Z M477 135 L476.25 135.75 L474.75 135.75 L467.25 139.5 L465.75 141 L462.75 142.5 L459.75 145.5 L459 145.5 L450 156 L444.75 166.5 L444.75 168 L443.25 171 L443.25 173.25 L442.5 174 L442.5 177 L441.75 177.75 L441.75 183 L441 183.75 L441 194.25 L441.75 195 L441.75 200.25 L442.5 201 L442.5 204 L443.25 204.75 L443.25 207 L444 207.75 L444 209.25 L445.5 211.5 L445.5 213 L449.25 220.5 L450.75 222 L452.25 225 L462 234.75 L462.75 234.75 L466.5 237.75 L472.5 240.75 L474 240.75 L476.25 242.25 L477.75 242.25 L478.5 243 L480.75 243 L481.5 243.75 L485.25 243.75 L486 244.5 L491.25 244.5 L492 245.25 L498 245.25 L498.75 244.5 L504.75 244.5 L505.5 243.75 L509.25 243.75 L510 243 L512.25 243 L513 242.25 L516.75 241.5 L527.25 236.25 L533.25 231 L534 231 L538.5 225.75 L538.5 220.5 L537 217.5 L534 214.5 L532.5 213.75 L531 213.75 L530.25 213 L527.25 213 L526.5 213.75 L525 213.75 L514.5 222 L511.5 223.5 L510 223.5 L509.25 224.25 L505.5 225 L504.75 225.75 L501 225.75 L500.25 226.5 L492.75 226.5 L492 225.75 L487.5 225.75 L486.75 225 L485.25 225 L484.5 224.25 L483 224.25 L482.25 223.5 L480.75 223.5 L477.75 222 L476.25 220.5 L475.5 220.5 L471.75 216.75 L470.25 216 L470.25 215.25 L466.5 210.75 L463.5 204.75 L462 197.25 L462.75 196.5 L531.75 196.5 L532.5 195.75 L536.25 195 L540 191.25 L541.5 188.25 L541.5 186 L542.25 185.25 L542.25 175.5 L541.5 174.75 L541.5 170.25 L540.75 169.5 L540 164.25 L538.5 162 L538.5 160.5 L535.5 154.5 L533.25 152.25 L533.25 151.5 L531 149.25 L531 148.5 L525 142.5 L524.25 142.5 L520.5 139.5 L513 135.75 L511.5 135.75 L508.5 134.25 L506.25 134.25 L505.5 133.5 L501.75 133.5 L501 132.75 L486.75 132.75 L486 133.5 L483 133.5 L482.25 134.25 Z M462 177.75 L462.75 177 L462.75 174 L463.5 173.25 L463.5 171.75 L465 168.75 L466.5 167.25 L467.25 165 L468.75 163.5 L468.75 162.75 L476.25 156 L482.25 153 L483.75 153 L486.75 151.5 L501 151.5 L501.75 152.25 L505.5 153 L510 155.25 L511.5 156.75 L512.25 156.75 L517.5 162 L517.5 162.75 L519 164.25 L521.25 168.75 L521.25 170.25 L522 171 L522 173.25 L522.75 174 L522.75 178.5 L522 179.25 L462.75 179.25 Z M930 131.25 L929.25 132 L926.25 132 L925.5 132.75 L923.25 132.75 L922.5 133.5 L921 133.5 L918.75 135 L917.25 135 L912.75 137.25 L911.25 138.75 L908.25 140.25 L901.5 147 L901.5 147.75 L898.5 151.5 L898.5 153 L897.75 153.75 L897.75 155.25 L896.25 158.25 L896.25 161.25 L895.5 162 L895.5 171 L896.25 171.75 L896.25 174.75 L897 175.5 L897 177 L897.75 177.75 L897.75 179.25 L899.25 182.25 L900.75 183.75 L900.75 184.5 L907.5 191.25 L908.25 191.25 L912 194.25 L913.5 195 L915 195 L920.25 198 L921.75 198 L922.5 198.75 L924 198.75 L927 200.25 L929.25 200.25 L930 201 L931.5 201 L932.25 201.75 L933.75 201.75 L934.5 202.5 L936 202.5 L936.75 203.25 L938.25 203.25 L941.25 204.75 L944.25 207.75 L945 209.25 L945 210.75 L944.25 212.25 L942 214.5 L940.5 215.25 L939 215.25 L938.25 216 L931.5 216 L930.75 215.25 L928.5 215.25 L927.75 214.5 L926.25 214.5 L920.25 211.5 L914.25 206.25 L911.25 206.25 L906 211.5 L906 212.25 L903.75 213.75 L903.75 214.5 L897 221.25 L897 222 L894 224.25 L893.25 225.75 L893.25 228 L902.25 236.25 L903 236.25 L904.5 237.75 L912 241.5 L913.5 241.5 L914.25 242.25 L915.75 242.25 L918.75 243.75 L925.5 244.5 L926.25 245.25 L945 245.25 L945.75 244.5 L949.5 244.5 L950.25 243.75 L955.5 243 L957.75 241.5 L959.25 241.5 L965.25 238.5 L970.5 234 L971.25 234 L972 232.5 L975.75 228.75 L975.75 228 L977.25 226.5 L979.5 222 L979.5 220.5 L980.25 219.75 L980.25 217.5 L981 216.75 L981 210 L981.75 209.25 L981.75 207.75 L981 207 L981 201 L980.25 200.25 L980.25 198.75 L979.5 198 L979.5 196.5 L978 193.5 L976.5 192 L975 189 L970.5 184.5 L969.75 184.5 L966 181.5 L958.5 177.75 L957 177.75 L952.5 175.5 L950.25 175.5 L947.25 174 L942 173.25 L941.25 172.5 L939.75 172.5 L939 171.75 L937.5 171.75 L934.5 170.25 L932.25 168 L931.5 166.5 L931.5 164.25 L934.5 161.25 L936 160.5 L938.25 160.5 L939 159.75 L940.5 159.75 L941.25 160.5 L945 160.5 L945.75 161.25 L949.5 162 L951 163.5 L955.5 165.75 L957.75 168 L960.75 168 L962.25 166.5 L962.25 165.75 L977.25 150 L978 147.75 L977.25 146.25 L970.5 140.25 L968.25 139.5 L966.75 138 L960.75 135 L959.25 135 L958.5 134.25 L957 134.25 L954 132.75 L951.75 132.75 L951 132 L947.25 132 L946.5 131.25 Z M779.25 87.75 L777.75 88.5 L777 90 L777 215.25 L777.75 216 L777.75 219 L778.5 219.75 L778.5 222 L783 231 L789 237 L789.75 237 L791.25 238.5 L792 238.5 L795 240.75 L796.5 240.75 L801 243 L804 243 L804.75 243.75 L809.25 243.75 L810 244.5 L816.75 244.5 L817.5 243.75 L822 243.75 L822.75 243 L825 243 L826.5 242.25 L827.25 240.75 L827.25 211.5 L825.75 210 L821.25 210 L820.5 209.25 L819 209.25 L817.5 208.5 L816 207 L815.25 205.5 L815.25 204 L814.5 203.25 L814.5 90 L812.25 87.75 Z M312 88.5 L309.75 90.75 L309 90.75 L309 91.5 L306.75 94.5 L306.75 237 L308.25 240 L310.5 242.25 L312 243 L313.5 243 L314.25 243.75 L318.75 243.75 L319.5 243 L321 243 L324.75 239.25 L325.5 237.75 L325.5 236.25 L326.25 235.5 L326.25 176.25 L327 175.5 L399.75 175.5 L400.5 176.25 L400.5 237.75 L401.25 239.25 L404.25 242.25 L407.25 243.75 L412.5 243.75 L413.25 243 L414.75 243 L418.5 239.25 L419.25 237.75 L419.25 234.75 L420 234 L420 210 L419.25 209.25 L420 207.75 L420 98.25 L419.25 97.5 L420 96.75 L419.25 96 L418.5 92.25 L415.5 89.25 L414 88.5 L412.5 88.5 L411.75 87.75 L408 87.75 L403.5 90 L402 91.5 L400.5 94.5 L400.5 151.5 L399.75 152.25 L400.5 153 L399.75 154.5 L400.5 155.25 L399 156.75 L327 156.75 L326.25 156 L326.25 96 L325.5 95.25 L325.5 93.75 L324.75 92.25 L321.75 89.25 L320.25 88.5 L318.75 88.5 L318 87.75 L314.25 87.75 L313.5 88.5 Z M727.5 90.75 L726 90.75 L723 89.25 L720.75 89.25 L720 88.5 L717.75 88.5 L717 87.75 L713.25 87.75 L712.5 87 L705.75 87 L705 86.25 L639.75 86.25 L636.75 88.5 L636 90 L636 240 L638.25 243 L674.25 243 L675.75 241.5 L675.75 198.75 L677.25 196.5 L712.5 196.5 L713.25 195.75 L717 195.75 L717.75 195 L720.75 195 L721.5 194.25 L723.75 194.25 L724.5 193.5 L726 193.5 L729.75 191.25 L731.25 191.25 L735.75 189 L737.25 187.5 L740.25 186 L742.5 183.75 L743.25 183.75 L749.25 177.75 L749.25 177 L752.25 174 L753 171.75 L754.5 170.25 L757.5 164.25 L757.5 162.75 L758.25 162 L758.25 160.5 L759.75 157.5 L759.75 154.5 L760.5 153.75 L760.5 150 L761.25 149.25 L761.25 135.75 L760.5 135 L760.5 130.5 L759.75 129.75 L759.75 127.5 L759 126.75 L759 124.5 L758.25 123.75 L757.5 120 L753.75 112.5 L752.25 111 L750.75 108 L745.5 102 L744.75 102 L738 96 Z M675.75 123.75 L677.25 122.25 L705.75 122.25 L706.5 123 L710.25 123.75 L713.25 126 L714 126 L717.75 129.75 L717.75 130.5 L719.25 132 L720 133.5 L720 135 L720.75 135.75 L720.75 138.75 L721.5 139.5 L721.5 144 L720.75 144.75 L720.75 147.75 L717.75 153.75 L711.75 159 L710.25 159 L707.25 160.5 L681.75 160.5 L681 161.25 L680.25 160.5 L677.25 160.5 L675.75 159 Z M571.5 85.5 L570.75 86.25 L568.5 86.25 L565.5 87.75 L563.25 90.75 L563.25 92.25 L562.5 93 L562.5 218.25 L563.25 219 L563.25 222.75 L564 223.5 L564.75 227.25 L567 231.75 L573.75 238.5 L574.5 238.5 L576 240 L579 241.5 L582.75 242.25 L583.5 243 L587.25 243 L588 243.75 L600 243.75 L604.5 241.5 L604.5 240.75 L606.75 238.5 L606.75 237 L607.5 236.25 L607.5 232.5 L606.75 231.75 L606.75 230.25 L606 228.75 L603 225.75 L601.5 225 L591 225 L590.25 224.25 L588.75 224.25 L587.25 223.5 L583.5 219.75 L582.75 218.25 L582.75 216.75 L582 216 L582 93.75 L581.25 93 L581.25 91.5 L580.5 90 L577.5 87 L576 86.25 L573.75 86.25 L573 85.5 Z M856.5 84 L855.75 84.75 L853.5 84.75 L852.75 85.5 L851.25 85.5 L848.25 87 L846.75 88.5 L846 88.5 L841.5 93.75 L840.75 95.25 L840.75 96.75 L840 97.5 L840 99 L839.25 99.75 L839.25 108.75 L840 109.5 L840 111.75 L841.5 114.75 L847.5 120.75 L848.25 120.75 L849.75 122.25 L851.25 122.25 L854.25 123.75 L857.25 123.75 L858 124.5 L860.25 124.5 L861 123.75 L864.75 123.75 L865.5 123 L867 123 L871.5 120.75 L876 116.25 L879 110.25 L879 107.25 L879.75 106.5 L879.75 101.25 L879 100.5 L879 98.25 L878.25 97.5 L878.25 96 L877.5 94.5 L876 93 L876 92.25 L871.5 87.75 L865.5 84.75 L863.25 84.75 L862.5 84 Z M121.5 13.5 L120.75 14.25 L115.5 14.25 L114.75 15 L111 15 L110.25 15.75 L107.25 15.75 L106.5 16.5 L104.25 16.5 L101.25 18 L99 18 L98.25 18.75 L96.75 18.75 L96 19.5 L92.25 20.25 L90 21.75 L88.5 21.75 L86.25 23.25 L84.75 23.25 L77.25 27 L75.75 28.5 L72 30 L68.25 33 L66 33.75 L63.75 36 L63 36 L60.75 38.25 L60 38.25 L57 41.25 L56.25 41.25 L42 55.5 L42 56.25 L36.75 62.25 L36.75 63 L30.75 71.25 L30 73.5 L28.5 75 L23.25 85.5 L23.25 87 L21.75 89.25 L21 93 L19.5 95.25 L19.5 96.75 L18 99.75 L18 102 L17.25 102.75 L17.25 105 L16.5 105.75 L16.5 108.75 L15.75 109.5 L15.75 112.5 L15 113.25 L15 117 L14.25 117.75 L14.25 125.25 L13.5 126 L13.5 138 L14.25 138.75 L14.25 146.25 L15 147 L15 151.5 L15.75 152.25 L15.75 155.25 L16.5 156 L17.25 162.75 L18 163.5 L18.75 168.75 L19.5 169.5 L19.5 171 L20.25 171.75 L20.25 173.25 L21 174 L21 175.5 L22.5 178.5 L22.5 180.75 L25.5 186.75 L25.5 188.25 L27.75 192.75 L27.75 194.25 L31.5 201 L31.5 202.5 L36.75 213 L38.25 214.5 L39.75 218.25 L41.25 219.75 L43.5 225 L46.5 228.75 L49.5 234.75 L51 236.25 L51 237 L54 240.75 L54.75 243 L56.25 244.5 L57.75 247.5 L60 249.75 L60 250.5 L61.5 252 L61.5 252.75 L63 254.25 L64.5 257.25 L69 262.5 L69 263.25 L72.75 267.75 L72.75 268.5 L75 270.75 L75 271.5 L78 274.5 L78 275.25 L83.25 281.25 L83.25 282 L86.25 285 L86.25 285.75 L93.75 294 L93.75 294.75 L104.25 306 L104.25 306.75 L123.75 327 L126.75 328.5 L129 328.5 L129.75 329.25 L132.75 329.25 L133.5 328.5 L135.75 328.5 L136.5 327.75 L138 327.75 L139.5 326.25 L140.25 326.25 L141.75 324.75 L141.75 324 L153 312.75 L153 312 L159 306 L159 305.25 L164.25 300 L164.25 299.25 L168.75 294.75 L168.75 294 L177 285 L177 284.25 L182.25 278.25 L182.25 277.5 L185.25 274.5 L185.25 273.75 L187.5 271.5 L187.5 270.75 L194.25 262.5 L195.75 259.5 L198 257.25 L199.5 254.25 L201.75 252 L201.75 251.25 L206.25 245.25 L207 243 L211.5 237 L212.25 234.75 L215.25 231 L218.25 225 L219.75 223.5 L234.75 193.5 L234.75 192 L236.25 189.75 L237 186 L238.5 183.75 L238.5 182.25 L239.25 181.5 L239.25 180 L240 179.25 L240 177.75 L240.75 177 L240.75 175.5 L242.25 172.5 L242.25 170.25 L243.75 167.25 L243.75 165 L244.5 164.25 L244.5 162 L245.25 161.25 L245.25 158.25 L246 157.5 L246 154.5 L246.75 153.75 L246.75 150 L247.5 149.25 L247.5 144 L248.25 143.25 L248.25 120.75 L247.5 120 L247.5 114.75 L246.75 114 L246.75 110.25 L246 109.5 L246 106.5 L245.25 105.75 L244.5 100.5 L243.75 99.75 L243.75 98.25 L243 97.5 L243 96 L242.25 95.25 L241.5 91.5 L240 89.25 L240 87.75 L236.25 81 L236.25 79.5 L234.75 76.5 L233.25 75 L232.5 72.75 L231 71.25 L230.25 69 L228.75 67.5 L228.75 66.75 L227.25 65.25 L225.75 62.25 L220.5 56.25 L220.5 55.5 L215.25 50.25 L215.25 49.5 L213.75 48.75 L211.5 46.5 L211.5 45.75 L210 45 L204.75 39.75 L204 39.75 L201.75 37.5 L201 37.5 L198.75 35.25 L198 35.25 L195.75 33 L195 33 L191.25 30 L186 27.75 L184.5 26.25 L178.5 23.25 L177 23.25 L173.25 21 L171.75 21 L167.25 18.75 L165 18.75 L164.25 18 L162.75 18 L162 17.25 L159.75 17.25 L159 16.5 L156.75 16.5 L156 15.75 L149.25 15 L148.5 14.25 L142.5 14.25 L141.75 13.5 Z M129 243.75 L133.5 243.75 L134.25 244.5 L136.5 244.5 L137.25 245.25 L138.75 245.25 L141.75 246.75 L144 249 L144.75 249 L148.5 253.5 L150 256.5 L150 258 L150.75 258.75 L150.75 261 L151.5 261.75 L151.5 266.25 L150.75 267 L150.75 269.25 L147.75 275.25 L142.5 280.5 L138 282.75 L135.75 282.75 L135 283.5 L127.5 283.5 L123 281.25 L121.5 281.25 L115.5 276 L111.75 268.5 L111.75 259.5 L112.5 258.75 L112.5 257.25 L114.75 252.75 L120 247.5 L120.75 247.5 L122.25 246 L123.75 245.25 L125.25 245.25 L126 244.5 L128.25 244.5 Z M182.25 65.25 L186 65.25 L186.75 66 L189 66 L196.5 69.75 L200.25 73.5 L200.25 74.25 L201.75 75.75 L202.5 77.25 L202.5 78.75 L203.25 79.5 L203.25 81 L204 81.75 L204 206.25 L203.25 207 L203.25 208.5 L201 213 L195 219 L190.5 221.25 L188.25 221.25 L187.5 222 L180 222 L179.25 221.25 L177.75 221.25 L173.25 219 L167.25 213 L165 208.5 L165 207 L164.25 206.25 L164.25 180 L161.25 180 L160.5 180.75 L147.75 180.75 L147 181.5 L142.5 181.5 L141.75 182.25 L137.25 182.25 L135 180 L135 178.5 L136.5 177 L138 177 L138.75 176.25 L142.5 176.25 L143.25 175.5 L145.5 175.5 L145.5 174 L135 174 L134.25 173.25 L131.25 173.25 L129.75 172.5 L128.25 170.25 L129.75 168 L131.25 168 L132 167.25 L144 167.25 L144 166.5 L139.5 166.5 L138.75 165.75 L132 165.75 L131.25 165 L128.25 165 L126.75 163.5 L126.75 161.25 L129.75 159 L133.5 159 L134.25 159.75 L144.75 159.75 L144 158.25 L140.25 158.25 L139.5 157.5 L137.25 157.5 L136.5 156.75 L133.5 156.75 L131.25 155.25 L131.25 153 L132.75 151.5 L142.5 151.5 L143.25 152.25 L153.75 152.25 L153.75 150.75 L152.25 149.25 L150 148.5 L146.25 144.75 L146.25 142.5 L147.75 141 L149.25 141 L156 144.75 L157.5 144.75 L159.75 146.25 L161.25 146.25 L164.25 147.75 L164.25 81.75 L165 81 L165.75 77.25 L167.25 75.75 L168 73.5 L171.75 69.75 L172.5 69.75 L174 68.25 L177 66.75 L178.5 66.75 L179.25 66 L181.5 66 Z M77.25 65.25 L84 66 L84.75 66.75 L86.25 66.75 L87.75 67.5 L93.75 72 L93.75 72.75 L95.25 74.25 L95.25 75 L97.5 78 L97.5 79.5 L98.25 80.25 L98.25 82.5 L99 83.25 L99 120 L100.5 120 L101.25 119.25 L105 119.25 L105.75 118.5 L122.25 118.5 L123.75 120 L123.75 121.5 L121.5 123.75 L120 124.5 L117 124.5 L116.25 125.25 L113.25 125.25 L112.5 126 L117.75 129 L119.25 129 L123.75 131.25 L125.25 131.25 L126 132 L129.75 132.75 L132.75 135 L132.75 137.25 L131.25 138.75 L126.75 138.75 L126 138 L124.5 138 L121.5 136.5 L119.25 136.5 L118.5 135.75 L117 135.75 L117 137.25 L118.5 137.25 L120.75 138.75 L122.25 138.75 L126 141 L129.75 141.75 L132 144 L132 146.25 L130.5 147.75 L126.75 147.75 L122.25 145.5 L120.75 145.5 L117.75 144 L115.5 144 L114.75 143.25 L113.25 143.25 L113.25 144 L114 144 L115.5 145.5 L117 145.5 L118.5 147 L120 147 L124.5 149.25 L126.75 151.5 L126.75 153 L125.25 154.5 L123 155.25 L118.5 153 L117 153 L110.25 149.25 L108 149.25 L108 150.75 L108.75 151.5 L109.5 151.5 L115.5 156 L116.25 157.5 L116.25 159 L114.75 160.5 L112.5 160.5 L109.5 159 L103.5 154.5 L99 152.25 L99 204.75 L98.25 205.5 L98.25 207.75 L96 212.25 L94.5 213.75 L94.5 214.5 L90.75 218.25 L88.5 219 L87 220.5 L85.5 220.5 L82.5 222 L75 222 L74.25 221.25 L72.75 221.25 L68.25 219 L63 214.5 L59.25 207 L59.25 81 L60 80.25 L60 78.75 L62.25 74.25 L67.5 69 L73.5 66 L76.5 66 Z M77.25 65.25"/>
</svg>
