<?xml version="1.0" encoding="UTF-8"?>
<svg xmlns="http://www.w3.org/2000/svg" width="620" height="545.8891" viewBox="0 0 620 545.8891" role="img" aria-label="HelPets vertical color with slogan">
  <title>HelPets vertical color with slogan</title>
  <defs>
    <linearGradient id="helplisIconGradient" x1="0" y1="0" x2="0" y2="1">
      <stop offset="0%" stop-color="#03BCB8"/>
      <stop offset="100%" stop-color="#0688B9"/>
    </linearGradient>
  </defs>
  <path fill="url(#helplisIconGradient)" fill-rule="evenodd" d="M301.0144 0 L300.2955 0.7188 L295.2636 0.7188 L294.5447 1.4377 L290.9505 1.4377 L290.2316 2.1565 L287.3562 2.1565 L286.6374 2.8754 L284.4808 2.8754 L281.6054 4.3131 L279.4489 4.3131 L278.73 5.0319 L277.2923 5.0319 L276.5735 5.7508 L272.9792 6.4696 L270.8227 7.9073 L269.385 7.9073 L267.2284 9.345 L265.7907 9.345 L258.6022 12.9393 L257.1645 14.377 L253.5703 15.8147 L249.976 18.6901 L247.8195 19.4089 L245.6629 21.5655 L244.9441 21.5655 L242.7875 23.722 L242.0687 23.722 L239.1933 26.5974 L238.4744 26.5974 L224.8163 40.2556 L224.8163 40.9744 L219.7843 46.7252 L219.7843 47.4441 L214.0335 55.3514 L213.3147 57.508 L211.877 58.9457 L206.845 69.0096 L206.845 70.4473 L205.4073 72.6038 L204.6885 76.1981 L203.2508 78.3546 L203.2508 79.7923 L201.8131 82.6677 L201.8131 84.8243 L201.0942 85.5431 L201.0942 87.6997 L200.3754 88.4185 L200.3754 91.2939 L199.6565 92.0128 L199.6565 94.8882 L198.9377 95.607 L198.9377 99.2013 L198.2188 99.9201 L198.2188 107.1086 L197.5 107.8275 L197.5 119.3291 L198.2188 120.0479 L198.2188 127.2364 L198.9377 127.9553 L198.9377 132.2684 L199.6565 132.9872 L199.6565 135.8626 L200.3754 136.5815 L201.0942 143.0511 L201.8131 143.77 L202.5319 148.8019 L203.2508 149.5208 L203.2508 150.9585 L203.9696 151.6773 L203.9696 153.115 L204.6885 153.8339 L204.6885 155.2716 L206.1262 158.147 L206.1262 160.3035 L209.0016 166.0543 L209.0016 167.492 L211.1581 171.8051 L211.1581 173.2428 L214.7524 179.7125 L214.7524 181.1502 L219.7843 191.2141 L221.222 192.6518 L222.6597 196.246 L224.0974 197.6837 L226.254 202.7157 L229.1294 206.3099 L232.0048 212.0607 L233.4425 213.4984 L233.4425 214.2173 L236.3179 217.8115 L237.0367 219.9681 L238.4744 221.4058 L239.9121 224.2812 L242.0687 226.4377 L242.0687 227.1565 L243.5064 228.5942 L243.5064 229.3131 L244.9441 230.7508 L246.3818 233.6262 L250.6949 238.6581 L250.6949 239.377 L254.2891 243.6901 L254.2891 244.4089 L256.4457 246.5655 L256.4457 247.2843 L259.3211 250.1597 L259.3211 250.8786 L264.353 256.6294 L264.353 257.3482 L267.2284 260.2236 L267.2284 260.9425 L274.4169 268.8498 L274.4169 269.5687 L284.4808 280.3514 L284.4808 281.0703 L303.1709 300.4792 L306.0463 301.9169 L308.2029 301.9169 L308.9217 302.6358 L311.7971 302.6358 L312.516 301.9169 L314.6725 301.9169 L315.3914 301.1981 L316.8291 301.1981 L318.2668 299.7604 L318.9856 299.7604 L320.4233 298.3227 L320.4233 297.6038 L331.2061 286.8211 L331.2061 286.1022 L336.9569 280.3514 L336.9569 279.6326 L341.9888 274.6006 L341.9888 273.8818 L346.3019 269.5687 L346.3019 268.8498 L354.2093 260.2236 L354.2093 259.5048 L359.2412 253.754 L359.2412 253.0351 L362.1166 250.1597 L362.1166 249.4409 L364.2732 247.2843 L364.2732 246.5655 L370.7428 238.6581 L372.1805 235.7827 L374.3371 233.6262 L375.7748 230.7508 L377.9313 228.5942 L377.9313 227.8754 L382.2444 222.1246 L382.9633 219.9681 L387.2764 214.2173 L387.9952 212.0607 L390.8706 208.4665 L393.746 202.7157 L395.1837 201.278 L409.5607 172.524 L409.5607 171.0863 L410.9984 168.9297 L411.7173 165.3355 L413.155 163.1789 L413.155 161.7412 L413.8738 161.0224 L413.8738 159.5847 L414.5927 158.8658 L414.5927 157.4281 L415.3115 156.7093 L415.3115 155.2716 L416.7492 152.3962 L416.7492 150.2396 L418.1869 147.3642 L418.1869 145.2077 L418.9058 144.4888 L418.9058 142.3323 L419.6246 141.6134 L419.6246 138.738 L420.3435 138.0192 L420.3435 135.1438 L421.0623 134.4249 L421.0623 130.8307 L421.7812 130.1118 L421.7812 125.0799 L422.5 124.361 L422.5 102.7955 L421.7812 102.0767 L421.7812 97.0447 L421.0623 96.3259 L421.0623 92.7316 L420.3435 92.0128 L420.3435 89.1374 L419.6246 88.4185 L418.9058 83.3866 L418.1869 82.6677 L418.1869 81.23 L417.4681 80.5112 L417.4681 79.0735 L416.7492 78.3546 L416.0304 74.7604 L414.5927 72.6038 L414.5927 71.1661 L410.9984 64.6965 L410.9984 63.2588 L409.5607 60.3834 L408.123 58.9457 L407.4042 56.7891 L405.9665 55.3514 L405.2476 53.1949 L403.8099 51.7572 L403.8099 51.0383 L402.3722 49.6006 L400.9345 46.7252 L395.9026 40.9744 L395.9026 40.2556 L390.8706 35.2236 L390.8706 34.5048 L389.4329 33.7859 L387.2764 31.6294 L387.2764 30.9105 L385.8387 30.1917 L380.8067 25.1597 L380.0879 25.1597 L377.9313 23.0032 L377.2125 23.0032 L375.0559 20.8466 L374.3371 20.8466 L372.1805 18.6901 L371.4617 18.6901 L367.8674 15.8147 L362.8355 13.6581 L361.3978 12.2204 L355.647 9.345 L354.2093 9.345 L350.615 7.1885 L349.1773 7.1885 L344.8642 5.0319 L342.7077 5.0319 L341.9888 4.3131 L340.5511 4.3131 L339.8323 3.5942 L337.6757 3.5942 L336.9569 2.8754 L334.8003 2.8754 L334.0815 2.1565 L327.6118 1.4377 L326.893 0.7188 L321.1422 0.7188 L320.4233 0 Z M308.2029 220.6869 L312.516 220.6869 L313.2348 221.4058 L315.3914 221.4058 L316.1102 222.1246 L317.5479 222.1246 L320.4233 223.5623 L322.5799 225.7188 L323.2987 225.7188 L326.893 230.0319 L328.3307 232.9073 L328.3307 234.345 L329.0495 235.0639 L329.0495 237.2204 L329.7684 237.9393 L329.7684 242.2524 L329.0495 242.9712 L329.0495 245.1278 L326.1741 250.8786 L321.1422 255.9105 L316.8291 258.0671 L314.6725 258.0671 L313.9537 258.7859 L306.7652 258.7859 L302.4521 256.6294 L301.0144 256.6294 L295.2636 251.5974 L291.6693 244.4089 L291.6693 235.7827 L292.3882 235.0639 L292.3882 233.6262 L294.5447 229.3131 L299.5767 224.2812 L300.2955 224.2812 L301.7332 222.8435 L303.1709 222.1246 L304.6086 222.1246 L305.3275 221.4058 L307.484 221.4058 Z M359.2412 49.6006 L362.8355 49.6006 L363.5543 50.3195 L365.7109 50.3195 L372.8994 53.9137 L376.4936 57.508 L376.4936 58.2268 L377.9313 59.6645 L378.6502 61.1022 L378.6502 62.5399 L379.369 63.2588 L379.369 64.6965 L380.0879 65.4153 L380.0879 184.7444 L379.369 185.4633 L379.369 186.901 L377.2125 191.2141 L371.4617 196.9649 L367.1486 199.1214 L364.992 199.1214 L364.2732 199.8403 L357.0847 199.8403 L356.3658 199.1214 L354.9281 199.1214 L350.615 196.9649 L344.8642 191.2141 L342.7077 186.901 L342.7077 185.4633 L341.9888 184.7444 L341.9888 159.5847 L339.1134 159.5847 L338.3946 160.3035 L326.1741 160.3035 L325.4553 161.0224 L321.1422 161.0224 L320.4233 161.7412 L316.1102 161.7412 L313.9537 159.5847 L313.9537 158.147 L315.3914 156.7093 L316.8291 156.7093 L317.5479 155.9904 L321.1422 155.9904 L321.861 155.2716 L324.0176 155.2716 L324.0176 153.8339 L313.9537 153.8339 L313.2348 153.115 L310.3594 153.115 L308.9217 152.3962 L307.484 150.2396 L308.9217 148.0831 L310.3594 148.0831 L311.0783 147.3642 L322.5799 147.3642 L322.5799 146.6454 L318.2668 146.6454 L317.5479 145.9265 L311.0783 145.9265 L310.3594 145.2077 L307.484 145.2077 L306.0463 143.77 L306.0463 141.6134 L308.9217 139.4569 L312.516 139.4569 L313.2348 140.1757 L323.2987 140.1757 L322.5799 138.738 L318.9856 138.738 L318.2668 138.0192 L316.1102 138.0192 L315.3914 137.3003 L312.516 137.3003 L310.3594 135.8626 L310.3594 133.7061 L311.7971 132.2684 L321.1422 132.2684 L321.861 132.9872 L331.9249 132.9872 L331.9249 131.5495 L330.4872 130.1118 L328.3307 129.393 L324.7364 125.7987 L324.7364 123.6422 L326.1741 122.2045 L327.6118 122.2045 L334.0815 125.7987 L335.5192 125.7987 L337.6757 127.2364 L339.1134 127.2364 L341.9888 128.6741 L341.9888 65.4153 L342.7077 64.6965 L343.4265 61.1022 L344.8642 59.6645 L345.5831 57.508 L349.1773 53.9137 L349.8962 53.9137 L351.3339 52.476 L354.2093 51.0383 L355.647 51.0383 L356.3658 50.3195 L358.5224 50.3195 Z M258.6022 49.6006 L265.0719 50.3195 L265.7907 51.0383 L267.2284 51.0383 L268.6661 51.7572 L274.4169 56.0703 L274.4169 56.7891 L275.8546 58.2268 L275.8546 58.9457 L278.0112 61.8211 L278.0112 63.2588 L278.73 63.9776 L278.73 66.1342 L279.4489 66.853 L279.4489 102.0767 L280.8866 102.0767 L281.6054 101.3578 L285.1997 101.3578 L285.9185 100.639 L301.7332 100.639 L303.1709 102.0767 L303.1709 103.5144 L301.0144 105.6709 L299.5767 106.3898 L296.7013 106.3898 L295.9824 107.1086 L293.107 107.1086 L292.3882 107.8275 L297.4201 110.7029 L298.8578 110.7029 L303.1709 112.8594 L304.6086 112.8594 L305.3275 113.5783 L308.9217 114.2971 L311.7971 116.4537 L311.7971 118.6102 L310.3594 120.0479 L306.0463 120.0479 L305.3275 119.3291 L303.8898 119.3291 L301.0144 117.8914 L298.8578 117.8914 L298.139 117.1725 L296.7013 117.1725 L296.7013 118.6102 L298.139 118.6102 L300.2955 120.0479 L301.7332 120.0479 L305.3275 122.2045 L308.9217 122.9233 L311.0783 125.0799 L311.0783 127.2364 L309.6406 128.6741 L306.0463 128.6741 L301.7332 126.5176 L300.2955 126.5176 L297.4201 125.0799 L295.2636 125.0799 L294.5447 124.361 L293.107 124.361 L293.107 125.0799 L293.8259 125.0799 L295.2636 126.5176 L296.7013 126.5176 L298.139 127.9553 L299.5767 127.9553 L303.8898 130.1118 L306.0463 132.2684 L306.0463 133.7061 L304.6086 135.1438 L302.4521 135.8626 L298.139 133.7061 L296.7013 133.7061 L290.2316 130.1118 L288.0751 130.1118 L288.0751 131.5495 L288.7939 132.2684 L289.5128 132.2684 L295.2636 136.5815 L295.9824 138.0192 L295.9824 139.4569 L294.5447 140.8946 L292.3882 140.8946 L289.5128 139.4569 L283.762 135.1438 L279.4489 132.9872 L279.4489 183.3067 L278.73 184.0256 L278.73 186.1821 L276.5735 190.4952 L275.1358 191.9329 L275.1358 192.6518 L271.5415 196.246 L269.385 196.9649 L267.9473 198.4026 L266.5096 198.4026 L263.6342 199.8403 L256.4457 199.8403 L255.7268 199.1214 L254.2891 199.1214 L249.976 196.9649 L244.9441 192.6518 L241.3498 185.4633 L241.3498 64.6965 L242.0687 63.9776 L242.0687 62.5399 L244.2252 58.2268 L249.2572 53.1949 L255.008 50.3195 L257.8834 50.3195 Z"/>
  <path fill="#021E5C" fill-rule="evenodd" d="M4.3152 347.5078 L2.4659 349.3572 L1.8494 349.3572 L1.8494 349.9737 L0 352.4395 L0 469.5669 L1.2329 472.0328 L3.0823 473.8821 L4.3152 474.4986 L5.5481 474.4986 L6.1646 475.1151 L9.8633 475.1151 L10.4798 474.4986 L11.7128 474.4986 L14.795 471.4163 L15.4115 470.1834 L15.4115 468.9505 L16.028 468.334 L16.028 419.6336 L16.6444 419.0172 L76.4411 419.0172 L77.0575 419.6336 L77.0575 470.1834 L77.674 471.4163 L80.1399 473.8821 L82.6057 475.1151 L86.9209 475.1151 L87.5373 474.4986 L88.7703 474.4986 L91.8525 471.4163 L92.469 470.1834 L92.469 467.7175 L93.0855 467.1011 L93.0855 447.3744 L92.469 446.7579 L93.0855 445.5249 L93.0855 355.5218 L92.469 354.9053 L93.0855 354.2889 L92.469 353.6724 L91.8525 350.5901 L89.3867 348.1243 L88.1538 347.5078 L86.9209 347.5078 L86.3044 346.8913 L83.2221 346.8913 L79.5234 348.7407 L78.2905 349.9737 L77.0575 352.4395 L77.0575 399.2905 L76.4411 399.907 L77.0575 400.5234 L76.4411 401.7563 L77.0575 402.3727 L75.8246 403.6057 L16.6444 403.6057 L16.028 402.9892 L16.028 353.6724 L15.4115 353.0559 L15.4115 351.823 L14.795 350.5901 L12.3292 348.1243 L11.0963 347.5078 L9.8633 347.5078 L9.2469 346.8913 L6.1646 346.8913 L5.5481 347.5078 Z M138.7831 385.7283 L138.1666 386.3448 L136.9337 386.3448 L130.7691 389.4271 L129.5362 390.66 L127.0704 391.8929 L124.6045 394.3588 L123.988 394.3588 L116.5905 402.9892 L112.2753 411.6197 L112.2753 412.8526 L111.0424 415.3184 L111.0424 417.1678 L110.4259 417.7842 L110.4259 420.2501 L109.8095 420.8666 L109.8095 425.1818 L109.193 425.7983 L109.193 434.4287 L109.8095 435.0451 L109.8095 439.3604 L110.4259 439.9768 L110.4259 442.4427 L111.0424 443.0591 L111.0424 444.9086 L111.6589 445.5249 L111.6589 446.7579 L112.8917 448.6073 L112.8917 449.8402 L115.9741 456.0048 L117.207 457.2377 L118.4399 459.7036 L126.4539 467.7175 L127.0704 467.7175 L130.1526 470.1834 L135.0843 472.6493 L136.3172 472.6493 L138.1666 473.8821 L139.3996 473.8821 L140.0161 474.4986 L141.8654 474.4986 L142.4818 475.1151 L145.5642 475.1151 L146.1806 475.7315 L150.4959 475.7315 L151.1123 476.348 L156.044 476.348 L156.6605 475.7315 L161.5922 475.7315 L162.2086 475.1151 L165.2909 475.1151 L165.9074 474.4986 L167.7568 474.4986 L168.3731 473.8821 L171.4555 473.2657 L180.0859 468.9505 L185.0176 464.6352 L185.634 464.6352 L189.3329 460.32 L189.3329 456.0048 L188.0999 453.539 L185.634 451.0731 L184.4012 450.4567 L183.1683 450.4567 L182.5518 449.8402 L180.0859 449.8402 L179.4694 450.4567 L178.2366 450.4567 L169.6061 457.2377 L167.1403 458.4706 L165.9074 458.4706 L165.2909 459.0871 L162.2086 459.7036 L161.5922 460.32 L158.5098 460.32 L157.8933 460.9365 L151.7287 460.9365 L151.1123 460.32 L147.4135 460.32 L146.797 459.7036 L145.5642 459.7036 L144.9477 459.0871 L143.7148 459.0871 L143.0983 458.4706 L141.8654 458.4706 L139.3996 457.2377 L138.1666 456.0048 L137.5502 456.0048 L134.4679 452.9225 L133.235 452.306 L133.235 451.6896 L130.1526 447.9908 L127.6868 443.0591 L126.4539 436.8945 L127.0704 436.2781 L183.7847 436.2781 L184.4012 435.6616 L187.4835 435.0451 L190.5657 431.9629 L191.7987 429.497 L191.7987 427.6477 L192.4151 427.0312 L192.4151 419.0172 L191.7987 418.4007 L191.7987 414.702 L191.1822 414.0855 L190.5657 409.7703 L189.3329 407.9209 L189.3329 406.6879 L186.867 401.7563 L185.0176 399.907 L185.0176 399.2905 L183.1683 397.4411 L183.1683 396.8246 L178.2366 391.8929 L177.6201 391.8929 L174.5378 389.4271 L168.3731 386.3448 L167.1403 386.3448 L164.6744 385.1118 L162.825 385.1118 L162.2086 384.4954 L159.1263 384.4954 L158.5098 383.879 L146.797 383.879 L146.1806 384.4954 L143.7148 384.4954 L143.0983 385.1118 Z M126.4539 420.8666 L127.0704 420.2501 L127.0704 417.7842 L127.6868 417.1678 L127.6868 415.9349 L128.9198 413.469 L130.1526 412.2361 L130.7691 410.3868 L132.002 409.1538 L132.002 408.5374 L138.1666 402.9892 L143.0983 400.5234 L144.3313 400.5234 L146.797 399.2905 L158.5098 399.2905 L159.1263 399.907 L162.2086 400.5234 L165.9074 402.3727 L167.1403 403.6057 L167.7568 403.6057 L172.072 407.9209 L172.072 408.5374 L173.3049 409.7703 L175.1542 413.469 L175.1542 414.702 L175.7707 415.3184 L175.7707 417.1678 L176.3872 417.7842 L176.3872 421.483 L175.7707 422.0995 L127.0704 422.0995 Z M215.9202 345.042 L215.3037 345.6584 L213.4543 345.6584 L210.9885 346.8913 L209.1391 349.3572 L209.1391 350.5901 L208.5226 351.2065 L208.5226 454.1554 L209.1391 454.7719 L209.1391 457.8542 L209.7556 458.4706 L210.3721 461.553 L212.2214 465.2517 L217.7695 470.7999 L218.386 470.7999 L219.6189 472.0328 L222.0848 473.2657 L225.1671 473.8821 L225.7835 474.4986 L228.8658 474.4986 L229.4823 475.1151 L239.3457 475.1151 L243.0444 473.2657 L243.0444 472.6493 L244.8938 470.7999 L244.8938 469.5669 L245.5102 468.9505 L245.5102 465.8682 L244.8938 465.2517 L244.8938 464.0188 L244.2774 462.7858 L241.8115 460.32 L240.5786 459.7036 L231.9481 459.7036 L231.3317 459.0871 L230.0987 459.0871 L228.8658 458.4706 L225.7835 455.3884 L225.1671 454.1554 L225.1671 452.9225 L224.5506 452.306 L224.5506 351.823 L223.9341 351.2065 L223.9341 349.9737 L223.3177 348.7407 L220.8519 346.2748 L219.6189 345.6584 L217.7695 345.6584 L217.1531 345.042 Z"/>
  <path fill="#03BCB8" fill-rule="evenodd" d="M343.9848 349.3572 L342.7519 349.3572 L340.286 348.1243 L338.4367 348.1243 L337.8202 347.5078 L335.9708 347.5078 L335.3543 346.8913 L332.2721 346.8913 L331.6556 346.2748 L326.1075 346.2748 L325.491 345.6584 L271.859 345.6584 L269.3931 347.5078 L268.7766 348.7407 L268.7766 472.0328 L270.626 474.4986 L300.2162 474.4986 L301.449 473.2657 L301.449 438.1275 L302.682 436.2781 L331.6556 436.2781 L332.2721 435.6616 L335.3543 435.6616 L335.9708 435.0451 L338.4367 435.0451 L339.0532 434.4287 L340.9025 434.4287 L341.519 433.8123 L342.7519 433.8123 L345.8342 431.9629 L347.0671 431.9629 L350.7658 430.1135 L351.9988 428.8805 L354.4646 427.6477 L356.314 425.7983 L356.9304 425.7983 L361.8621 420.8666 L361.8621 420.2501 L364.328 417.7842 L364.9445 415.9349 L366.1774 414.702 L368.6432 409.7703 L368.6432 408.5374 L369.2597 407.9209 L369.2597 406.6879 L370.4926 404.2222 L370.4926 401.7563 L371.1091 401.1398 L371.1091 398.0575 L371.7255 397.4411 L371.7255 386.3448 L371.1091 385.7283 L371.1091 382.0296 L370.4926 381.4131 L370.4926 379.5637 L369.8761 378.9472 L369.8761 377.0979 L369.2597 376.4814 L368.6432 373.3991 L365.5609 367.2346 L364.328 366.0016 L363.0951 363.5357 L358.7799 358.6041 L358.1634 358.6041 L352.6152 353.6724 Z M301.449 376.4814 L302.682 375.2485 L326.1075 375.2485 L326.7239 375.865 L329.8062 376.4814 L332.2721 378.3309 L332.8885 378.3309 L335.9708 381.4131 L335.9708 382.0296 L337.2038 383.2625 L337.8202 384.4954 L337.8202 385.7283 L338.4367 386.3448 L338.4367 388.8107 L339.0532 389.4271 L339.0532 393.1259 L338.4367 393.7423 L338.4367 396.2081 L335.9708 401.1398 L331.0391 405.4551 L329.8062 405.4551 L327.3404 406.6879 L306.3807 406.6879 L305.7643 407.3044 L305.1478 406.6879 L302.682 406.6879 L301.449 405.4551 Z M413.8437 385.7283 L413.2273 386.3448 L411.9943 386.3448 L405.8297 389.4271 L404.5968 390.66 L402.131 391.8929 L399.6651 394.3588 L399.0486 394.3588 L391.6512 402.9892 L387.336 411.6197 L387.336 412.8526 L386.103 415.3184 L386.103 417.1678 L385.4866 417.7842 L385.4866 420.2501 L384.8701 420.8666 L384.8701 425.1818 L384.2536 425.7983 L384.2536 434.4287 L384.8701 435.0451 L384.8701 439.3604 L385.4866 439.9768 L385.4866 442.4427 L386.103 443.0591 L386.103 444.9086 L386.7195 445.5249 L386.7195 446.7579 L387.9523 448.6073 L387.9523 449.8402 L391.0347 456.0048 L392.2676 457.2377 L393.5005 459.7036 L401.5145 467.7175 L402.131 467.7175 L405.2132 470.1834 L410.1449 472.6493 L411.3779 472.6493 L413.2273 473.8821 L414.4602 473.8821 L415.0767 474.4986 L416.926 474.4986 L417.5425 475.1151 L420.6248 475.1151 L421.2412 475.7315 L425.5565 475.7315 L426.173 476.348 L431.1046 476.348 L431.7211 475.7315 L436.6528 475.7315 L437.2692 475.1151 L440.3515 475.1151 L440.968 474.4986 L442.8174 474.4986 L443.4338 473.8821 L446.5161 473.2657 L455.1465 468.9505 L460.0782 464.6352 L460.6947 464.6352 L464.3935 460.32 L464.3935 456.0048 L463.1605 453.539 L460.6947 451.0731 L459.4618 450.4567 L458.2289 450.4567 L457.6124 449.8402 L455.1465 449.8402 L454.5301 450.4567 L453.2972 450.4567 L444.6667 457.2377 L442.2009 458.4706 L440.968 458.4706 L440.3515 459.0871 L437.2692 459.7036 L436.6528 460.32 L433.5704 460.32 L432.954 460.9365 L426.7893 460.9365 L426.173 460.32 L422.4741 460.32 L421.8577 459.7036 L420.6248 459.7036 L420.0083 459.0871 L418.7754 459.0871 L418.1589 458.4706 L416.926 458.4706 L414.4602 457.2377 L413.2273 456.0048 L412.6108 456.0048 L409.5285 452.9225 L408.2956 452.306 L408.2956 451.6896 L405.2132 447.9908 L402.7474 443.0591 L401.5145 436.8945 L402.131 436.2781 L458.8453 436.2781 L459.4618 435.6616 L462.5441 435.0451 L465.6263 431.9629 L466.8593 429.497 L466.8593 427.6477 L467.4757 427.0312 L467.4757 419.0172 L466.8593 418.4007 L466.8593 414.702 L466.2428 414.0855 L465.6263 409.7703 L464.3935 407.9209 L464.3935 406.6879 L461.9276 401.7563 L460.0782 399.907 L460.0782 399.2905 L458.2289 397.4411 L458.2289 396.8246 L453.2972 391.8929 L452.6807 391.8929 L449.5984 389.4271 L443.4338 386.3448 L442.2009 386.3448 L439.735 385.1118 L437.8856 385.1118 L437.2692 384.4954 L434.1869 384.4954 L433.5704 383.879 L421.8577 383.879 L421.2412 384.4954 L418.7754 384.4954 L418.1589 385.1118 Z M401.5145 420.8666 L402.131 420.2501 L402.131 417.7842 L402.7474 417.1678 L402.7474 415.9349 L403.9804 413.469 L405.2132 412.2361 L405.8297 410.3868 L407.0626 409.1538 L407.0626 408.5374 L413.2273 402.9892 L418.1589 400.5234 L419.3919 400.5234 L421.8577 399.2905 L433.5704 399.2905 L434.1869 399.907 L437.2692 400.5234 L440.968 402.3727 L442.2009 403.6057 L442.8174 403.6057 L447.1326 407.9209 L447.1326 408.5374 L448.3655 409.7703 L450.2148 413.469 L450.2148 414.702 L450.8313 415.3184 L450.8313 417.1678 L451.4478 417.7842 L451.4478 421.483 L450.8313 422.0995 L402.131 422.0995 Z M577.4643 382.6461 L576.8478 383.2625 L574.3819 383.2625 L573.7654 383.879 L571.9161 383.879 L571.2997 384.4954 L570.0667 384.4954 L568.2173 385.7283 L566.9845 385.7283 L563.2856 387.5777 L562.0527 388.8107 L559.5869 390.0435 L554.0388 395.5917 L554.0388 396.2081 L551.5729 399.2905 L551.5729 400.5234 L550.9564 401.1398 L550.9564 402.3727 L549.7236 404.8386 L549.7236 407.3044 L549.1071 407.9209 L549.1071 415.3184 L549.7236 415.9349 L549.7236 418.4007 L550.34 419.0172 L550.34 420.2501 L550.9564 420.8666 L550.9564 422.0995 L552.1893 424.5653 L553.4223 425.7983 L553.4223 426.4147 L558.9704 431.9629 L559.5869 431.9629 L562.6692 434.4287 L563.9021 435.0451 L565.135 435.0451 L569.4502 437.511 L570.6832 437.511 L571.2997 438.1275 L572.5326 438.1275 L574.9984 439.3604 L576.8478 439.3604 L577.4643 439.9768 L578.6971 439.9768 L579.3136 440.5933 L580.5465 440.5933 L581.163 441.2097 L582.3959 441.2097 L583.0124 441.8262 L584.2453 441.8262 L586.7111 443.0591 L589.177 445.5249 L589.7934 446.7579 L589.7934 447.9908 L589.177 449.2238 L587.3276 451.0731 L586.0947 451.6896 L584.8617 451.6896 L584.2453 452.306 L578.6971 452.306 L578.0807 451.6896 L576.2313 451.6896 L575.6149 451.0731 L574.3819 451.0731 L569.4502 448.6073 L564.5186 444.2921 L562.0527 444.2921 L557.7375 448.6073 L557.7375 449.2238 L555.8882 450.4567 L555.8882 451.0731 L550.34 456.6212 L550.34 457.2377 L547.8741 459.0871 L547.2577 460.32 L547.2577 462.1694 L554.6552 468.9505 L555.2717 468.9505 L556.5046 470.1834 L562.6692 473.2657 L563.9021 473.2657 L564.5186 473.8821 L565.7515 473.8821 L568.2173 475.1151 L573.7654 475.7315 L574.3819 476.348 L589.7934 476.348 L590.4099 475.7315 L593.4922 475.7315 L594.1087 475.1151 L598.4239 474.4986 L600.2733 473.2657 L601.5062 473.2657 L606.4378 470.7999 L610.7531 467.1011 L611.3696 467.1011 L611.986 465.8682 L615.0683 462.7858 L615.0683 462.1694 L616.3013 460.9365 L618.1506 457.2377 L618.1506 456.0048 L618.7671 455.3884 L618.7671 453.539 L619.3835 452.9225 L619.3835 447.3744 L620 446.7579 L620 445.5249 L619.3835 444.9086 L619.3835 439.9768 L618.7671 439.3604 L618.7671 438.1275 L618.1506 437.511 L618.1506 436.2781 L616.9177 433.8123 L615.6848 432.5793 L614.4519 430.1135 L610.7531 426.4147 L610.1367 426.4147 L607.0543 423.9488 L600.8897 420.8666 L599.6568 420.8666 L595.958 419.0172 L594.1087 419.0172 L591.6428 417.7842 L587.3276 417.1678 L586.7111 416.5514 L585.4782 416.5514 L584.8617 415.9349 L583.6289 415.9349 L581.163 414.702 L579.3136 412.8526 L578.6971 411.6197 L578.6971 409.7703 L581.163 407.3044 L582.3959 406.6879 L584.2453 406.6879 L584.8617 406.0716 L586.0947 406.0716 L586.7111 406.6879 L589.7934 406.6879 L590.4099 407.3044 L593.4922 407.9209 L594.7252 409.1538 L598.4239 411.0032 L600.2733 412.8526 L602.7391 412.8526 L603.972 411.6197 L603.972 411.0032 L616.3013 398.0575 L616.9177 396.2081 L616.3013 394.9753 L610.7531 390.0435 L608.9037 389.4271 L607.6708 388.1942 L602.7391 385.7283 L601.5062 385.7283 L600.8897 385.1118 L599.6568 385.1118 L597.191 383.879 L595.3415 383.879 L594.7252 383.2625 L591.6428 383.2625 L591.0263 382.6461 Z"/>
  <path fill="#03BCB8" fill-rule="evenodd" d="M495.2761 346.8913 L494.0432 347.5078 L493.4267 348.7407 L493.4267 451.6896 L494.0432 452.306 L494.0432 454.7719 L494.6597 455.3884 L494.6597 457.2377 L498.3584 464.6352 L503.2902 469.5669 L503.9066 469.5669 L505.1395 470.7999 L505.756 470.7999 L508.2218 472.6493 L509.4547 472.6493 L513.1535 474.4986 L515.6193 474.4986 L516.2358 475.1151 L519.9346 475.1151 L520.551 475.7315 L526.0991 475.7315 L526.7156 475.1151 L530.4144 475.1151 L531.0309 474.4986 L532.8802 474.4986 L534.1131 473.8821 L534.7296 472.6493 L534.7296 448.6073 L533.4967 447.3744 L529.7979 447.3744 L529.1815 446.7579 L527.9485 446.7579 L526.7156 446.1414 L525.4827 444.9086 L524.8663 443.6756 L524.8663 442.4427 L524.2498 441.8262 L524.2498 348.7407 L522.4004 346.8913 Z"/>
  <path fill="#03BCB8" fill-rule="evenodd" d="M486.939 386.1935 L526.7603 386.1935 C530.0963 386.1935 532.8007 388.8978 532.8007 392.2338 L532.8007 392.2338 C532.8007 395.5698 530.0963 398.2741 526.7603 398.2741 L486.939 398.2741 C483.603 398.2741 480.8987 395.5698 480.8987 392.2338 L480.8987 392.2338 C480.8987 388.8978 483.603 386.1935 486.939 386.1935 Z"/>
  <path fill="#021E5C" fill-rule="evenodd" d="M48.043 526.2592 L48.043 536.4464 L43.4 536.4464 L43.4 508.3533 L51.922 508.3533 C55.1479 508.3533 57.649 509.1043 59.4252 510.6063 C61.2014 512.1082 62.0895 514.224 62.0895 516.9536 C62.0895 519.6833 61.1622 521.9166 59.3076 523.6537 C57.4531 525.3907 54.9455 526.2592 51.7848 526.2592 Z M48.043 512.1931 L48.043 522.4586 L51.06 522.4586 C53.0582 522.4586 54.5798 521.995 55.6246 521.0677 C56.6694 520.1404 57.1919 518.8344 57.1919 517.1496 C57.1919 513.8453 55.272 512.1931 51.4322 512.1931 Z M77.9776 520.7151 C77.429 520.2841 76.6389 520.0686 75.6071 520.0686 C74.2619 520.0686 73.1387 520.6759 72.2375 521.8905 C71.3363 523.1051 70.8857 524.7573 70.8857 526.8469 L70.8857 536.4464 L66.3407 536.4464 L66.3407 516.3855 L70.8857 516.3855 L70.8857 520.5192 L70.9641 520.5192 C71.4082 519.1086 72.0906 518.0083 73.0113 517.2181 C73.9321 516.428 74.9606 516.0329 76.0969 516.0329 C76.9197 516.0329 77.5466 516.157 77.9776 516.4051 Z M89.732 536.9166 C86.6367 536.9166 84.165 535.9795 82.3169 534.1053 C80.4689 532.2311 79.5448 529.7464 79.5448 526.651 C79.5448 523.2814 80.508 520.6498 82.4345 518.756 C84.3609 516.8622 86.9566 515.9153 90.2218 515.9153 C93.3563 515.9153 95.7986 516.8361 97.5487 518.6776 C99.2988 520.5192 100.1738 523.0725 100.1738 526.3376 C100.1738 529.5374 99.2302 532.1005 97.343 534.0269 C95.4557 535.9534 92.9188 536.9166 89.732 536.9166 Z M89.9475 519.5396 C88.1713 519.5396 86.7673 520.16 85.7355 521.4007 C84.7037 522.6415 84.1878 524.3524 84.1878 526.5335 C84.1878 528.6362 84.7102 530.2916 85.7551 531.4997 C86.7999 532.7078 88.1974 533.3119 89.9475 533.3119 C91.7368 533.3119 93.1114 532.7176 94.0713 531.5291 C95.0313 530.3406 95.5113 528.6493 95.5113 526.4551 C95.5113 524.2479 95.0313 522.5435 94.0713 521.342 C93.1114 520.1404 91.7368 519.5396 89.9475 519.5396 Z M115.3762 536.2309 C114.4881 536.6749 113.3192 536.897 111.8695 536.897 C107.9775 536.897 106.0315 535.0293 106.0315 531.294 L106.0315 519.951 L102.6814 519.951 L102.6814 516.3855 L106.0315 516.3855 L106.0315 511.7425 L110.5765 510.4495 L110.5765 516.3855 L115.3762 516.3855 L115.3762 519.951 L110.5765 519.951 L110.5765 529.9815 C110.5765 531.17 110.792 532.0189 111.223 532.5283 C111.654 533.0376 112.3723 533.2923 113.378 533.2923 C114.1485 533.2923 114.8146 533.0703 115.3762 532.6262 Z M136.0444 527.6502 L122.3701 527.6502 C122.4223 529.5048 122.9937 530.9349 124.0843 531.9405 C125.1748 532.9462 126.6735 533.449 128.5804 533.449 C130.7223 533.449 132.6879 532.8091 134.4772 531.5291 L134.4772 535.1926 C132.6487 536.3419 130.2325 536.9166 127.2286 536.9166 C124.2769 536.9166 121.962 536.0056 120.2837 534.1837 C118.6054 532.3617 117.7663 529.7986 117.7663 526.4943 C117.7663 523.3729 118.6903 520.8293 120.5384 518.8637 C122.3864 516.8981 124.6818 515.9153 127.4245 515.9153 C130.1672 515.9153 132.2895 516.7969 133.7915 518.5601 C135.2934 520.3232 136.0444 522.7721 136.0444 525.9066 Z M131.6561 524.4373 C131.643 522.8047 131.2577 521.5346 130.5002 520.6269 C129.7427 519.7192 128.6979 519.2653 127.3657 519.2653 C126.0597 519.2653 124.9528 519.7421 124.0451 520.6955 C123.1374 521.6489 122.5791 522.8962 122.3701 524.4373 Z M158.6325 534.84 C158.6325 542.2061 154.9298 545.8891 147.5246 545.8891 C144.9125 545.8891 142.6334 545.4516 140.6874 544.5765 L140.6874 540.4233 C142.8816 541.6771 144.9647 542.304 146.9368 542.304 C151.7039 542.304 154.0874 539.9597 154.0874 535.2709 L154.0874 533.0768 L154.0091 533.0768 C152.5071 535.6366 150.2477 536.9166 147.2307 536.9166 C144.7884 536.9166 142.8195 536.0252 141.3241 534.2424 C139.8287 532.4597 139.081 530.0664 139.081 527.0624 C139.081 523.6537 139.8842 520.9436 141.4906 518.9323 C143.0971 516.921 145.3043 515.9153 148.1123 515.9153 C150.7635 515.9153 152.7291 516.9994 154.0091 519.1674 L154.0874 519.1674 L154.0874 516.3855 L158.6325 516.3855 Z M154.1266 527.2584 L154.1266 524.6528 C154.1266 523.2423 153.6597 522.0374 152.7259 521.0383 C151.7921 520.0392 150.6264 519.5396 149.2289 519.5396 C147.505 519.5396 146.1565 520.1763 145.1835 521.4497 C144.2105 522.7231 143.724 524.5026 143.724 526.7882 C143.724 528.7603 144.1909 530.3374 145.1247 531.5193 C146.0585 532.7013 147.296 533.2923 148.8371 533.2923 C150.4044 533.2923 151.6778 532.7274 152.6573 531.5977 C153.6369 530.468 154.1266 529.0215 154.1266 527.2584 Z M181.534 527.6502 L167.8597 527.6502 C167.9119 529.5048 168.4833 530.9349 169.5739 531.9405 C170.6644 532.9462 172.1631 533.449 174.0699 533.449 C176.2119 533.449 178.1775 532.8091 179.9667 531.5291 L179.9667 535.1926 C178.1383 536.3419 175.7221 536.9166 172.7182 536.9166 C169.7665 536.9166 167.4516 536.0056 165.7733 534.1837 C164.095 532.3617 163.2559 529.7986 163.2559 526.4943 C163.2559 523.3729 164.1799 520.8293 166.028 518.8637 C167.876 516.8981 170.1714 515.9153 172.9141 515.9153 C175.6568 515.9153 177.7791 516.7969 179.2811 518.5601 C180.783 520.3232 181.534 522.7721 181.534 525.9066 Z M177.1457 524.4373 C177.1326 522.8047 176.7473 521.5346 175.9898 520.6269 C175.2323 519.7192 174.1875 519.2653 172.8553 519.2653 C171.5493 519.2653 170.4424 519.7421 169.5347 520.6955 C168.627 521.6489 168.0687 522.8962 167.8597 524.4373 Z M187.7443 536.8774 C186.9606 536.8774 186.2945 536.6194 185.746 536.1036 C185.1975 535.5877 184.9232 534.9706 184.9232 534.2522 C184.9232 533.5208 185.1975 532.8939 185.746 532.3715 C186.2945 531.8491 186.9606 531.5879 187.7443 531.5879 C188.5409 531.5879 189.2168 531.8491 189.7719 532.3715 C190.327 532.8939 190.6045 533.5208 190.6045 534.2522 C190.6045 534.9706 190.327 535.5877 189.7719 536.1036 C189.2168 536.6194 188.5409 536.8774 187.7443 536.8774 Z M226.671 535.2709 C224.5552 536.368 221.9235 536.9166 218.7759 536.9166 C214.7011 536.9166 211.4359 535.6301 208.9806 533.0572 C206.5252 530.4843 205.2975 527.1082 205.2975 522.9288 C205.2975 518.436 206.6787 514.8052 209.441 512.0364 C212.2032 509.2676 215.6936 507.8832 219.9122 507.8832 C222.6288 507.8832 224.8817 508.2684 226.671 509.039 L226.671 513.6624 C224.7772 512.5392 222.6875 511.9776 220.4019 511.9776 C217.3589 511.9776 214.8937 512.9506 213.0065 514.8966 C211.1192 516.8426 210.1756 519.4417 210.1756 522.6937 C210.1756 525.7891 211.0572 528.2542 212.8203 530.0892 C214.5835 531.9242 216.9017 532.8417 219.775 532.8417 C222.4263 532.8417 224.725 532.2148 226.671 530.961 Z M240.3845 536.9166 C237.2891 536.9166 234.8174 535.9795 232.9694 534.1053 C231.1213 532.2311 230.1973 529.7464 230.1973 526.651 C230.1973 523.2814 231.1605 520.6498 233.0869 518.756 C235.0133 516.8622 237.6091 515.9153 240.8742 515.9153 C244.0087 515.9153 246.451 516.8361 248.2011 518.6776 C249.9512 520.5192 250.8263 523.0725 250.8263 526.3376 C250.8263 529.5374 249.8827 532.1005 247.9954 534.0269 C246.1082 535.9534 243.5712 536.9166 240.3845 536.9166 Z M240.6 519.5396 C238.8237 519.5396 237.4197 520.16 236.388 521.4007 C235.3562 522.6415 234.8403 524.3524 234.8403 526.5335 C234.8403 528.6362 235.3627 530.2916 236.4075 531.4997 C237.4524 532.7078 238.8499 533.3119 240.6 533.3119 C242.3892 533.3119 243.7639 532.7176 244.7238 531.5291 C245.6837 530.3406 246.1637 528.6493 246.1637 526.4551 C246.1637 524.2479 245.6837 522.5435 244.7238 521.342 C243.7639 520.1404 242.3892 519.5396 240.6 519.5396 Z M273.3164 536.4464 L268.7714 536.4464 L268.7714 525.1426 C268.7714 521.3942 267.4457 519.52 264.7945 519.52 C263.4101 519.52 262.2673 520.0392 261.3661 521.0775 C260.4649 522.1158 260.0143 523.4251 260.0143 525.0054 L260.0143 536.4464 L255.4497 536.4464 L255.4497 516.3855 L260.0143 516.3855 L260.0143 519.7159 L260.0927 519.7159 C261.5947 517.1822 263.7627 515.9153 266.5968 515.9153 C268.7779 515.9153 270.4431 516.6239 271.5924 518.0409 C272.7418 519.458 273.3164 521.5052 273.3164 524.1826 Z M295.8457 527.6502 L282.1714 527.6502 C282.2237 529.5048 282.7951 530.9349 283.8856 531.9405 C284.9761 532.9462 286.4748 533.449 288.3817 533.449 C290.5236 533.449 292.4892 532.8091 294.2785 531.5291 L294.2785 535.1926 C292.45 536.3419 290.0338 536.9166 287.0299 536.9166 C284.0782 536.9166 281.7633 536.0056 280.085 534.1837 C278.4067 532.3617 277.5676 529.7986 277.5676 526.4943 C277.5676 523.3729 278.4916 520.8293 280.3397 518.8637 C282.1877 516.8981 284.4831 515.9153 287.2258 515.9153 C289.9685 515.9153 292.0908 516.7969 293.5928 518.5601 C295.0947 520.3232 295.8457 522.7721 295.8457 525.9066 Z M291.4574 524.4373 C291.4443 522.8047 291.0591 521.5346 290.3016 520.6269 C289.544 519.7192 288.4992 519.2653 287.167 519.2653 C285.861 519.2653 284.7541 519.7421 283.8464 520.6955 C282.9387 521.6489 282.3804 522.8962 282.1714 524.4373 Z M314.5352 535.5256 C312.9288 536.4529 311.0285 536.9166 308.8344 536.9166 C305.8566 536.9166 303.4534 535.986 301.625 534.1249 C299.7965 532.2638 298.8823 529.8509 298.8823 526.8861 C298.8823 523.5818 299.8651 520.9273 301.8307 518.9225 C303.7963 516.9177 306.4247 515.9153 309.7159 515.9153 C311.5444 515.9153 313.1574 516.2353 314.5548 516.8753 L314.5548 521.1069 C313.1574 520.062 311.6685 519.5396 310.0882 519.5396 C308.1683 519.5396 306.5945 520.1894 305.3668 521.4889 C304.1391 522.7884 303.5253 524.4895 303.5253 526.5923 C303.5253 528.6689 304.1032 530.308 305.2591 531.5095 C306.4149 532.7111 307.9658 533.3119 309.9118 533.3119 C311.5444 533.3119 313.0855 532.7307 314.5352 531.5683 Z M329.6201 536.2309 C328.732 536.6749 327.5631 536.897 326.1133 536.897 C322.2213 536.897 320.2753 535.0293 320.2753 531.294 L320.2753 519.951 L316.9253 519.951 L316.9253 516.3855 L320.2753 516.3855 L320.2753 511.7425 L324.8204 510.4495 L324.8204 516.3855 L329.6201 516.3855 L329.6201 519.951 L324.8204 519.951 L324.8204 529.9815 C324.8204 531.17 325.0359 532.0189 325.4669 532.5283 C325.8979 533.0376 326.6162 533.2923 327.6218 533.2923 C328.3924 533.2923 329.0585 533.0703 329.6201 532.6262 Z M348.9365 536.4464 L344.5286 536.4464 L344.5286 533.3119 L344.4502 533.3119 C343.0658 535.715 341.0349 536.9166 338.3575 536.9166 C336.3854 536.9166 334.841 536.3811 333.7243 535.3101 C332.6077 534.2392 332.0493 532.8221 332.0493 531.0589 C332.0493 527.2714 334.2304 525.0642 338.5926 524.4373 L344.5482 523.5949 C344.5482 520.7347 343.1899 519.3045 340.4733 519.3045 C338.0833 519.3045 335.9283 520.1273 334.0084 521.773 L334.0084 517.796 C336.1242 516.5422 338.5665 515.9153 341.3353 515.9153 C346.4028 515.9153 348.9365 518.4099 348.9365 523.399 Z M344.5482 526.5923 L340.3362 527.18 C339.0301 527.3498 338.0473 527.6665 337.3878 528.1301 C336.7282 528.5938 336.3985 529.4068 336.3985 530.5692 C336.3985 531.4181 336.7021 532.1136 337.3094 532.6556 C337.9167 533.1976 338.7298 533.4686 339.7485 533.4686 C341.1329 533.4686 342.2789 532.9821 343.1866 532.0091 C344.0943 531.0361 344.5482 529.8117 344.5482 528.3358 Z M356.3614 536.8774 C355.5778 536.8774 354.9117 536.6194 354.3631 536.1036 C353.8146 535.5877 353.5403 534.9706 353.5403 534.2522 C353.5403 533.5208 353.8146 532.8939 354.3631 532.3715 C354.9117 531.8491 355.5778 531.5879 356.3614 531.5879 C357.1581 531.5879 357.834 531.8491 358.389 532.3715 C358.9441 532.8939 359.2216 533.5208 359.2216 534.2522 C359.2216 534.9706 358.9441 535.5877 358.389 536.1036 C357.834 536.6194 357.1581 536.8774 356.3614 536.8774 Z M393.7208 512.3107 L385.6495 512.3107 L385.6495 536.4464 L380.9869 536.4464 L380.9869 512.3107 L372.9351 512.3107 L372.9351 508.3533 L393.7208 508.3533 Z M405.6908 520.7151 C405.1422 520.2841 404.3521 520.0686 403.3203 520.0686 C401.9751 520.0686 400.8519 520.6759 399.9507 521.8905 C399.0495 523.1051 398.5989 524.7573 398.5989 526.8469 L398.5989 536.4464 L394.0539 536.4464 L394.0539 516.3855 L398.5989 516.3855 L398.5989 520.5192 L398.6773 520.5192 C399.1213 519.1086 399.8038 518.0083 400.7245 517.2181 C401.6453 516.428 402.6738 516.0329 403.8101 516.0329 C404.6329 516.0329 405.2598 516.157 405.6908 516.4051 Z M424.3019 536.4464 L419.894 536.4464 L419.894 533.3119 L419.8157 533.3119 C418.4312 535.715 416.4003 536.9166 413.7229 536.9166 C411.7508 536.9166 410.2064 536.3811 409.0897 535.3101 C407.9731 534.2392 407.4147 532.8221 407.4147 531.0589 C407.4147 527.2714 409.5958 525.0642 413.958 524.4373 L419.9136 523.5949 C419.9136 520.7347 418.5553 519.3045 415.8387 519.3045 C413.4487 519.3045 411.2937 520.1273 409.3738 521.773 L409.3738 517.796 C411.4896 516.5422 413.9319 515.9153 416.7007 515.9153 C421.7682 515.9153 424.3019 518.4099 424.3019 523.399 Z M419.9136 526.5923 L415.7016 527.18 C414.3956 527.3498 413.4128 527.6665 412.7532 528.1301 C412.0937 528.5938 411.7639 529.4068 411.7639 530.5692 C411.7639 531.4181 412.0675 532.1136 412.6748 532.6556 C413.2822 533.1976 414.0952 533.4686 415.1139 533.4686 C416.4983 533.4686 417.6443 532.9821 418.5521 532.0091 C419.4598 531.0361 419.9136 529.8117 419.9136 528.3358 Z M447.7128 536.4464 L443.1678 536.4464 L443.1678 525.1426 C443.1678 521.3942 441.8421 519.52 439.1909 519.52 C437.8064 519.52 436.6637 520.0392 435.7625 521.0775 C434.8613 522.1158 434.4107 523.4251 434.4107 525.0054 L434.4107 536.4464 L429.8461 536.4464 L429.8461 516.3855 L434.4107 516.3855 L434.4107 519.7159 L434.4891 519.7159 C435.991 517.1822 438.1591 515.9153 440.9932 515.9153 C443.1743 515.9153 444.8395 516.6239 445.9888 518.0409 C447.1381 519.458 447.7128 521.5052 447.7128 524.1826 Z M471.4959 545.6736 L466.9509 545.6736 L466.9509 532.9984 L466.8725 532.9984 C465.5012 535.6105 463.2613 536.9166 460.1529 536.9166 C457.6845 536.9166 455.7025 536.0187 454.2071 534.2228 C452.7117 532.427 451.964 529.9815 451.964 526.8861 C451.964 523.5557 452.7835 520.8946 454.4226 518.9029 C456.0617 516.9112 458.2657 515.9153 461.0345 515.9153 C463.7249 515.9153 465.6709 516.9994 466.8725 519.1674 L466.9509 519.1674 L466.9509 516.3855 L471.4959 516.3855 Z M467.0096 527.3171 L467.0096 524.7312 C467.0096 523.2814 466.5427 522.0538 465.6089 521.0481 C464.6751 520.0424 463.4898 519.5396 462.0532 519.5396 C460.3684 519.5396 459.0395 520.1698 458.0665 521.4301 C457.0935 522.6905 456.607 524.4699 456.607 526.7686 C456.607 528.806 457.0772 530.4059 458.0175 531.5683 C458.9579 532.7307 460.1725 533.3119 461.6614 533.3119 C463.2939 533.3119 464.5935 532.7437 465.5599 531.6075 C466.5264 530.4712 467.0096 529.0411 467.0096 527.3171 Z M494.9264 536.4464 L490.3813 536.4464 L490.3813 533.2727 L490.303 533.2727 C488.9839 535.7019 486.9334 536.9166 484.1515 536.9166 C479.4106 536.9166 477.0401 534.0694 477.0401 528.375 L477.0401 516.3855 L481.5851 516.3855 L481.5851 527.9048 C481.5851 531.5095 482.9761 533.3119 485.7579 533.3119 C487.1032 533.3119 488.21 532.8156 489.0786 531.823 C489.9471 530.8304 490.3813 529.5309 490.3813 527.9244 L490.3813 516.3855 L494.9264 516.3855 Z M503.1349 512.1735 C502.3904 512.1735 501.7537 511.9319 501.2248 511.4487 C500.6958 510.9654 500.4314 510.3516 500.4314 509.6071 C500.4314 508.8627 500.6958 508.2423 501.2248 507.746 C501.7537 507.2497 502.3904 507.0016 503.1349 507.0016 C503.9055 507.0016 504.5585 507.2497 505.094 507.746 C505.6294 508.2423 505.8972 508.8627 505.8972 509.6071 C505.8972 510.3124 505.6294 510.9164 505.094 511.4193 C504.5585 511.9221 503.9055 512.1735 503.1349 512.1735 Z M505.3878 536.4464 L500.8428 536.4464 L500.8428 516.3855 L505.3878 516.3855 Z M515.8884 536.4464 L511.3238 536.4464 L511.3238 506.7469 L515.8884 506.7469 Z M524.0969 512.1735 C523.3525 512.1735 522.7158 511.9319 522.1868 511.4487 C521.6579 510.9654 521.3934 510.3516 521.3934 509.6071 C521.3934 508.8627 521.6579 508.2423 522.1868 507.746 C522.7158 507.2497 523.3525 507.0016 524.0969 507.0016 C524.8675 507.0016 525.5205 507.2497 526.056 507.746 C526.5915 508.2423 526.8592 508.8627 526.8592 509.6071 C526.8592 510.3124 526.5915 510.9164 526.056 511.4193 C525.5205 511.9221 524.8675 512.1735 524.0969 512.1735 Z M526.3499 536.4464 L521.8048 536.4464 L521.8048 516.3855 L526.3499 516.3855 Z M547.0964 518.2858 L536.2628 532.9005 L547.0572 532.9005 L547.0572 536.4464 L529.8958 536.4464 L529.8958 534.742 L540.9645 519.9314 L530.9537 519.9314 L530.9537 516.3855 L547.0964 516.3855 Z M566.3149 536.4464 L561.907 536.4464 L561.907 533.3119 L561.8286 533.3119 C560.4442 535.715 558.4133 536.9166 555.7359 536.9166 C553.7638 536.9166 552.2194 536.3811 551.1027 535.3101 C549.986 534.2392 549.4277 532.8221 549.4277 531.0589 C549.4277 527.2714 551.6088 525.0642 555.971 524.4373 L561.9266 523.5949 C561.9266 520.7347 560.5683 519.3045 557.8517 519.3045 C555.4616 519.3045 553.3067 520.1273 551.3868 521.773 L551.3868 517.796 C553.5026 516.5422 555.9449 515.9153 558.7137 515.9153 C563.7812 515.9153 566.3149 518.4099 566.3149 523.399 Z M561.9266 526.5923 L557.7146 527.18 C556.4085 527.3498 555.4257 527.6665 554.7662 528.1301 C554.1066 528.5938 553.7768 529.4068 553.7768 530.5692 C553.7768 531.4181 554.0805 532.1136 554.6878 532.6556 C555.2951 533.1976 556.1081 533.4686 557.1268 533.4686 C558.5113 533.4686 559.6573 532.9821 560.565 532.0091 C561.4727 531.0361 561.9266 529.8117 561.9266 528.3358 Z M573.7398 536.8774 C572.9561 536.8774 572.29 536.6194 571.7415 536.1036 C571.193 535.5877 570.9187 534.9706 570.9187 534.2522 C570.9187 533.5208 571.193 532.8939 571.7415 532.3715 C572.29 531.8491 572.9561 531.5879 573.7398 531.5879 C574.5364 531.5879 575.2123 531.8491 575.7674 532.3715 C576.3225 532.8939 576.6 533.5208 576.6 534.2522 C576.6 534.9706 576.3225 535.5877 575.7674 536.1036 C575.2123 536.6194 574.5364 536.8774 573.7398 536.8774 Z"/>
</svg>
